Coordinates
version=1
nRows=34
nColumns=38
inDegrees=no

Units are S.I. units (second, meters, Newtons, ...)
If the header above contains a line with 'inDegrees', this indicates whether rotational values are in degrees (yes) or radians (no).

endheader
time	pelvis_tilt	pelvis_list	pelvis_rotation	pelvis_tx	pelvis_ty	pelvis_tz	hip_flexion_r	hip_adduction_r	hip_rotation_r	knee_angle_r	ankle_angle_r	subtalar_angle_r	mtp_angle_r	hip_flexion_l	hip_adduction_l	hip_rotation_l	knee_angle_l	ankle_angle_l	subtalar_angle_l	mtp_angle_l	lumbar_extension	lumbar_bending	lumbar_rotation	arm_flex_r	arm_add_r	arm_rot_r	elbow_flex_r	pro_sup_r	wrist_flex_r	wrist_dev_r	arm_flex_l	arm_add_l	arm_rot_l	elbow_flex_l	pro_sup_l	wrist_flex_l	wrist_dev_l
1.47	-3.08923	1.03836	1.6428	0.81994	-0.130428	0.98403	0.867271	-0.0939173	-0.137054	0	-0.143444	0	0	0.236713	-0.0152811	-0.150751	0.250579	-0.0984553	0	0	0.524937	-0.013393	-0.212053	-0.168465	-0.177689	0.397593	0.198909	1.57006	0	0	-0.165714	-0.357893	0.180931	1.0469	1.44	0	0
1.48	-3.08247	1.03844	1.63546	0.818657	-0.145168	0.982208	0.86578	-0.0842883	-0.118065	0	-0.165822	0	0	0.232504	-0.0219165	-0.14671	0.271141	-0.0958745	0	0	0.527073	-0.00624353	-0.208688	-0.168268	-0.178505	0.397357	0.192755	1.56723	0	0	-0.160515	-0.354517	0.189961	1.03394	1.4566	0	0
1.49	-3.07499	1.03815	1.62682	0.817309	-0.160258	0.980718	0.863974	-0.0740065	-0.101474	0	-0.214815	0	0	0.229377	-0.0288423	-0.141949	0.293079	-0.0968588	0	0	0.530418	0.00159809	-0.204425	-0.169596	-0.180129	0.397544	0.188825	1.561	0	0	-0.15654	-0.349276	0.19753	1.01864	1.474	0	0
1.5	-3.06721	1.03568	1.61748	0.815905	-0.175453	0.979507	0.866164	-0.0650358	-0.0877053	0.0123123	-0.253317	0	0	0.230399	-0.0354652	-0.134076	0.318093	-0.102822	0	0	0.537437	0.00955799	-0.200929	-0.171494	-0.182297	0.399298	0.185679	1.55661	0	0	-0.154392	-0.344019	0.206713	1.00108	1.48261	0	0
1.51	-3.05842	1.03177	1.60631	0.814372	-0.19069	0.978663	0.868745	-0.05594	-0.073445	0.0222103	-0.287647	0	0	0.235398	-0.0425341	-0.123306	0.347259	-0.112637	0	0	0.546274	0.0183915	-0.196713	-0.173576	-0.184642	0.401753	0.183132	1.55198	0	0	-0.152768	-0.338386	0.217246	0.981278	1.48778	0	0
1.52	-3.04727	1.02735	1.59151	0.812698	-0.205996	0.978298	0.87171	-0.0451029	-0.0654135	0.0363938	-0.310843	0	0	0.243271	-0.0511115	-0.110839	0.380456	-0.126433	0	0	0.555602	0.0291818	-0.191563	-0.175554	-0.187268	0.403307	0.181394	1.54549	0	0	-0.151514	-0.331633	0.227934	0.959199	1.49073	0	0
1.53	-3.03379	1.02329	1.57292	0.810905	-0.221363	0.978484	0.875073	-0.0326075	-0.0635722	0.0586355	-0.319828	0	0	0.253211	-0.0613356	-0.0979782	0.41838	-0.14396	0	0	0.564016	0.0422797	-0.185398	-0.177146	-0.190392	0.405322	0.180731	1.53871	0	0	-0.15029	-0.323867	0.238986	0.934926	1.49185	0	0
1.54	-3.02033	1.01959	1.55275	0.809038	-0.236665	0.979127	0.878923	-0.0195372	-0.0585754	0.0883647	-0.315439	0	0	0.265827	-0.0718021	-0.0847562	0.462421	-0.165451	0	0	0.571089	0.0565115	-0.178106	-0.177925	-0.193936	0.408756	0.181043	1.53314	0	0	-0.149488	-0.31518	0.2492	0.909322	1.49095	0	0
1.55	-3.00908	1.01628	1.53322	0.807063	-0.251779	0.980039	0.882751	-0.00614375	-0.0447835	0.123078	-0.299863	0	0	0.281438	-0.0812777	-0.0710542	0.512554	-0.191714	0	0	0.576467	0.0704031	-0.169697	-0.177303	-0.197505	0.412814	0.182244	1.52892	0	0	-0.149418	-0.306386	0.257912	0.883771	1.48856	0	0
1.56	-2.9995	1.01434	1.51524	0.80501	-0.266661	0.981097	0.88491	0.00732635	-0.0282746	0.158795	-0.277289	0	0	0.298871	-0.0901511	-0.0567886	0.567109	-0.22168	0	0	0.578785	0.0831253	-0.160959	-0.175024	-0.200774	0.416725	0.184628	1.52603	0	0	-0.149927	-0.29832	0.265502	0.859624	1.48353	0	0
1.57	-2.99068	1.01458	1.50017	0.803043	-0.281285	0.982233	0.883653	0.0193813	-0.0193481	0.19083	-0.252911	0	0	0.316932	-0.0983312	-0.0413717	0.624073	-0.253804	0	0	0.577403	0.0935874	-0.153835	-0.17095	-0.203506	0.420176	0.188044	1.52466	0	0	-0.150446	-0.291671	0.273027	0.837088	1.47467	0	0
1.58	-2.98173	1.01695	1.48819	0.801241	-0.295652	0.983342	0.878094	0.0290416	-0.0225264	0.216349	-0.227378	0	0	0.335592	-0.105824	-0.0249506	0.6827	-0.288476	0	0	0.572861	0.101346	-0.148834	-0.165631	-0.205651	0.422857	0.192718	1.52479	0	0	-0.150419	-0.286847	0.282006	0.816154	1.461	0	0
1.59	-2.96999	1.02133	1.47718	0.799636	-0.309894	0.984428	0.866671	0.037118	-0.0334889	0.233571	-0.205645	0	0	0.355075	-0.113914	-0.00792432	0.742937	-0.321323	0	0	0.565768	0.107514	-0.146665	-0.159619	-0.207516	0.424688	0.19875	1.5275	0	0	-0.149974	-0.283056	0.291854	0.796204	1.44351	0	0
1.6	-2.95525	1.02654	1.46668	0.798298	-0.323913	0.985508	0.850329	0.0440712	-0.045959	0.243196	-0.186442	0	0	0.376491	-0.122317	0.0106527	0.803773	-0.355362	0	0	0.557473	0.112552	-0.146585	-0.153496	-0.209468	0.424836	0.206696	1.53217	0	0	-0.148757	-0.279793	0.303044	0.776913	1.42213	0	0
1.61	-2.93899	1.03093	1.45756	0.797291	-0.337662	0.986563	0.831551	0.0497865	-0.0566368	0.246862	-0.168866	0	0	0.400625	-0.130005	0.0305399	0.862668	-0.390027	0	0	0.550309	0.116242	-0.147755	-0.148053	-0.21151	0.420913	0.216643	1.53621	0	0	-0.146516	-0.276921	0.31641	0.757273	1.3999	0	0
1.62	-2.92341	1.03412	1.45078	0.796573	-0.351241	0.98768	0.812006	0.0541348	-0.0654607	0.246754	-0.153929	0	0	0.426732	-0.135699	0.0512603	0.917821	-0.415833	0	0	0.545502	0.118227	-0.149401	-0.143691	-0.213263	0.413386	0.227831	1.53745	0	0	-0.143947	-0.273263	0.329434	0.735865	1.37987	0	0
1.63	-2.9107	1.03595	1.4468	0.795994	-0.364592	0.988923	0.793684	0.0572429	-0.0731195	0.245736	-0.139055	0	0	0.454118	-0.138614	0.0716514	0.968681	-0.424174	0	0	0.543081	0.11856	-0.14967	-0.13973	-0.214563	0.405953	0.238286	1.54077	0	0	-0.140576	-0.26945	0.344099	0.712856	1.35934	0	0
1.64	-2.90271	1.03656	1.44526	0.795333	-0.377734	0.99038	0.777499	0.0596673	-0.0785197	0.244906	-0.126319	0	0	0.481551	-0.139359	0.0878653	1.01411	-0.41199	0	0	0.542549	0.117531	-0.146631	-0.136103	-0.215394	0.397125	0.248488	1.54436	0	0	-0.136927	-0.265624	0.360039	0.688522	1.33904	0	0
1.65	-2.89773	1.03637	1.44532	0.794568	-0.390909	0.992136	0.762326	0.061678	-0.0835095	0.242964	-0.116863	0	0	0.508485	-0.138738	0.100579	1.05418	-0.385708	0	0	0.543976	0.11534	-0.141543	-0.133718	-0.215852	0.383538	0.260257	1.5452	0	0	-0.133747	-0.261925	0.377121	0.662902	1.32118	0	0
1.66	-2.89508	1.03613	1.44674	0.793797	-0.404139	0.994127	0.746789	0.0634896	-0.0875734	0.238719	-0.110204	0	0	0.534608	-0.136661	0.110397	1.0897	-0.351914	0	0	0.546288	0.112209	-0.135128	-0.132026	-0.216297	0.369133	0.27253	1.54743	0	0	-0.131327	-0.258591	0.394411	0.637719	1.30667	0	0
1.67	-2.89447	1.03716	1.44943	0.79303	-0.417478	0.996382	0.729325	0.0650171	-0.0902492	0.232876	-0.104977	0	0	0.558416	-0.133357	0.1169	1.12021	-0.315352	0	0	0.547736	0.10791	-0.127801	-0.130852	-0.216682	0.352605	0.286015	1.54996	0	0	-0.129963	-0.256471	0.411651	0.614534	1.29671	0	0
1.68	-2.8967	1.03937	1.45362	0.792245	-0.43086	0.99889	0.710419	0.0659055	-0.0917714	0.227061	-0.100795	0	0	0.580005	-0.128873	0.119432	1.1448	-0.279982	0	0	0.548243	0.102484	-0.119213	-0.129257	-0.216395	0.336044	0.298815	1.55401	0	0	-0.129666	-0.255614	0.428581	0.593468	1.29113	0	0
1.69	-2.90317	1.04161	1.45979	0.791354	-0.444088	1.00148	0.691929	0.0657293	-0.093775	0.222259	-0.0976934	0	0	0.600778	-0.123495	0.117411	1.16303	-0.248742	0	0	0.54859	0.0958424	-0.108299	-0.127913	-0.215377	0.318355	0.311945	1.55821	0	0	-0.131404	-0.255285	0.441639	0.575939	1.28515	0	0
1.7	-2.91139	1.04491	1.46753	0.790523	-0.457258	1.00419	0.671731	0.0645047	-0.0947347	0.216584	-0.0958505	0	0	0.619721	-0.117858	0.112608	1.17445	-0.22744	0	0	0.547928	0.0880637	-0.0986791	-0.125276	-0.214673	0.305933	0.324931	1.56008	0	0	-0.135906	-0.255661	0.448821	0.562516	1.28238	0	0
1.71	-2.92128	1.05017	1.47637	0.789753	-0.470497	1.00709	0.648699	0.0625369	-0.0952982	0.209134	-0.0943964	0	0	0.635203	-0.111484	0.10729	1.17916	-0.206053	0	0	0.54445	0.0797054	-0.0885539	-0.122577	-0.214628	0.294086	0.339888	1.56393	0	0	-0.140607	-0.257259	0.456062	0.551167	1.28119	0	0
1.72	-2.9321	1.0564	1.48602	0.789041	-0.48369	1.01004	0.624162	0.0600941	-0.0968836	0.199709	-0.0940885	0	0	0.648663	-0.105216	0.100878	1.17772	-0.185191	0	0	0.539013	0.0710202	-0.0780039	-0.120387	-0.214518	0.279462	0.356714	1.5708	0	0	-0.145184	-0.259866	0.463489	0.541977	1.27945	0	0
1.73	-2.94361	1.06261	1.49596	0.788362	-0.496784	1.01293	0.599747	0.0574457	-0.0996596	0.189662	-0.0954458	0	0	0.661286	-0.0998156	0.0926541	1.17051	-0.169859	0	0	0.533476	0.0622753	-0.0679164	-0.117986	-0.2147	0.267479	0.374103	1.5708	0	0	-0.151055	-0.262648	0.467896	0.53495	1.27616	0	0
1.74	-2.95546	1.0686	1.50573	0.787703	-0.509728	1.01573	0.575849	0.0547235	-0.103478	0.179556	-0.0983812	0	0	0.673614	-0.0954729	0.0827329	1.15848	-0.157978	0	0	0.527832	0.053863	-0.058089	-0.115906	-0.21569	0.258044	0.393262	1.5708	0	0	-0.157784	-0.265015	0.469115	0.529331	1.2702	0	0
1.75	-2.967	1.07416	1.5146	0.787042	-0.522547	1.01838	0.55265	0.0523376	-0.107889	0.16959	-0.102598	0	0	0.685559	-0.092394	0.0713953	1.14159	-0.148261	0	0	0.522159	0.0461532	-0.048537	-0.113818	-0.217208	0.249812	0.413442	1.5708	0	0	-0.165167	-0.266984	0.467762	0.524657	1.26228	0	0
1.76	-2.97742	1.07974	1.52191	0.786442	-0.535301	1.02089	0.529462	0.050428	-0.112692	0.159586	-0.107865	0	0	0.696139	-0.0904052	0.0597904	1.1195	-0.140117	0	0	0.516018	0.0395554	-0.0391488	-0.111757	-0.219801	0.243407	0.435007	1.5708	0	0	-0.172511	-0.268295	0.464874	0.520281	1.25317	0	0
1.77	-2.98635	1.0851	1.52747	0.78594	-0.547923	1.0232	0.506823	0.0490199	-0.117928	0.150324	-0.11425	0	0	0.705885	-0.0896738	0.0470672	1.0932	-0.132828	0	0	0.50991	0.0342143	-0.0301297	-0.109931	-0.223096	0.237062	0.4578	1.5708	0	0	-0.179792	-0.268977	0.461277	0.516293	1.24256	0	0
1.78	-2.99514	1.08873	1.53242	0.785485	-0.560389	1.02522	0.486558	0.0477074	-0.122369	0.142158	-0.120877	0	0	0.716488	-0.0899535	0.031739	1.06257	-0.127222	0	0	0.505895	0.0294546	-0.021063	-0.108698	-0.226436	0.23018	0.480977	1.5708	0	0	-0.187302	-0.269193	0.45732	0.51237	1.23002	0	0
1.79	-3.00429	1.09154	1.5366	0.784979	-0.572835	1.02697	0.467473	0.0466292	-0.126267	0.13463	-0.127371	0	0	0.726489	-0.0911051	0.0147444	1.02757	-0.12227	0	0	0.502758	0.0251423	-0.0113948	-0.107824	-0.229955	0.225333	0.504127	1.5708	0	0	-0.195084	-0.269509	0.453464	0.509302	1.21592	0	0
1.8	-3.01308	1.09353	1.53965	0.784435	-0.585238	1.0284	0.449706	0.0459294	-0.129429	0.127766	-0.13335	0	0	0.735822	-0.0930921	-0.0033117	0.98815	-0.117439	0	0	0.500337	0.0214865	-0.00171381	-0.107021	-0.233599	0.221143	0.527668	1.5708	0	0	-0.202907	-0.27	0.450125	0.507091	1.20136	0	0
